<svg xmlns="http://www.w3.org/2000/svg" xmlns:xlink="http://www.w3.org/1999/xlink" x="0px" y="0px" viewBox="0 0 100 100" width="100" height="100"><path d="M50,0C36.5,0,25.5,11,25.5,24.5S36.5,49,50,49c13.5,0,24.5-11,24.5-24.5C74.5,11,63.5,0,50,0z M50,41.3c-9.3,0-16.8-7.5-16.8-16.8c0-9.3,7.5-16.8,16.8-16.8c9.3,0,16.8,7.5,16.8,16.8c0,0,0,0,0,0C66.8,33.8,59.3,41.3,50,41.3z"/><path d="M50,55.1c-23.1,0-41.8,18.7-41.8,41.8v3.1h83.7v-3.1C91.8,73.8,73.1,55.1,50,55.1z M16.8,93.9c1.6-18.4,17.8-31.9,36.1-30.3C69,65,81.8,77.8,83.2,93.9H16.8z"/></svg>