<svg xmlns="http://www.w3.org/2000/svg" xmlns:xlink="http://www.w3.org/1999/xlink" x="0px"
	 y="0px" viewBox="0 0 300 50" width="300" height="50">
<path d="M167.6,48.2h-7l0.7-46.5h9l6.5,33.4l6.3-33.4h8.6l0.8,46.5h-7l0.4-32.8l-6.3,32.8h-5.3l-7-32.8L167.6,48.2z"/>
<path d="M29.1,1.8h7l-6.3,46.5h-6.7l-4.6-27.1l-4.4,27.1H7.5L0.7,1.8h7l3.4,30.7l4.3-30.7h6L26,32.5L29.1,1.8z"/>
<path d="M103.9,34.5v13.7h-6.8V1.7h6.8v18.6l9.9-18.6h7.9l-11.2,20.9l11.6,25.6h-7.9L106.5,30L103.9,34.5z"/>
<path d="M266.7,48.2h-7.2V1.8h7.2V48.2z"/>
<path d="M46.5,37.5l-1.7,10.7h-7.4l9-46.5h9l8.9,46.5h-7.3l-1.7-10.7H46.5z M50.8,9.4L47.6,31h6.5L50.8,9.4z"/>
<path d="M206.2,37.5l-1.7,10.7H197l9-46.5h9l8.9,46.5h-7.3l-1.7-10.7H206.2z M210.5,9.4L207.2,31h6.5L210.5,9.4z"/>
<path d="M281.7,37.5L280,48.2h-7.4l9-46.5h9l8.9,46.5H292l-1.7-10.7H281.7z M286,9.4L282.7,31h6.5L286,9.4z"/>
<path d="M240.1,1.8c4,0,6.8,1.3,8.7,3.5c1.7,1.9,2.7,4.7,2.7,10.8c0,6.4-1.1,10-4.4,12.8l5,19.3l-7.2,0l-4.3-17.5
	c-0.2,0-1.1,0-1.3,0h-3.8v17.5h-6.7V1.8H240.1z M244.7,15.9c0-4.1-0.5-7.1-4.2-7.1h-4.9v15.1h4.9c1.1,0,2.3-0.3,2.9-1.2
	C244.5,21.3,244.7,19.8,244.7,15.9z"/>
<path d="M148.7,14c-0.4-4.1-1.4-7.5-3.7-9.7c-1.1-1.1-3.7-3.1-8.6-3.1c-4.9,0-7.5,2.1-8.6,3.1c-2.2,2.2-3.2,5.6-3.7,9.7
	c-0.3,3.8-0.4,7.6-0.4,11c0,3.4,0.1,7.2,0.4,11c0.4,4.1,1.4,7.5,3.7,9.7c1.1,1.1,3.7,3.1,8.6,3.1c4.9,0,7.5-2.1,8.6-3.1
	c2.2-2.2,3.2-5.6,3.7-9.7c0.3-3.8,0.4-7.6,0.4-11C149.1,21.6,149,17.8,148.7,14z M136.5,42.5c-2.4,0-3.3-1.2-3.6-1.4
	c-0.9-1-1.3-2.2-1.6-4.8c-0.1-0.5-0.5-4.3-0.5-11.3v0c0-7.1,0.4-10.8,0.5-11.3c0.3-2.5,0.7-3.9,1.6-4.9c0.2-0.2,1.2-1.4,3.6-1.4
	s3.3,1.2,3.6,1.4c0.9,1,1.3,2.4,1.6,4.9c0.1,0.5,0.5,4.2,0.5,11.3v0c0,7.1-0.4,10.8-0.5,11.3c-0.3,2.5-0.7,3.8-1.6,4.8
	C139.8,41.3,138.8,42.5,136.5,42.5z"/>
<path d="M91.2,31.5h-7.1c0,0,0,2.4-0.1,4.8C84,37.9,84,39.6,83,40.9c-0.6,0.9-2.2,1.4-3.4,1.4c-1.3,0-2.8-0.5-3.4-1.2
	c-0.8-0.9-1.4-2.3-1.6-4.8c-0.2-2.3-0.5-6.2-0.5-11.3s0.1-8.3,0.5-11.3c0.3-2.5,0.5-3.6,1.6-4.9c0.8-0.9,2.3-1.2,3.6-1.2
	c1.1,0,2.6,0.4,3.3,1.3c0.7,0.9,1,1.9,1,3.5c0.1,2.4,0.1,4,0.1,4h7c0,0,0-2.6-0.2-4.7c-0.3-2.8-0.8-5-2.7-7.2
	c-1.9-2.2-4.9-3.2-8.6-3.2c-3.2,0-6.4,0.9-8.7,3.1c-2.2,2.2-3.2,5.6-3.6,9.6c0,0-0.4,4.8-0.4,11.1c0,3.4,0.1,7.3,0.4,11.1
	c0.4,4.1,1.4,7.5,3.6,9.6c2.2,2.2,5.4,3.1,8.7,3.1c3.7,0,6.6-1,8.6-3.1c2.2-2.4,2.7-5.6,2.9-8.6C91.3,34.9,91.2,31.5,91.2,31.5z"/>
</svg>
